# xmcd
#
# Track frame offsets:
#        150
#        21687
#        46490
#        80365
#
# Disc length: 1286 seconds
#
# Revision: 0
# Processed by: cddbd v1.5.1PL2 Copyright (c) Steve Scherf et al.
# Submitted via: ExactAudioCopy v0.95b2
#
DISCID=2e050404
DTITLE=COSA NOSTRA - YOU MAKE ME FEEL BRAND NEW
DYEAR=2000
DGENRE=JPop
TTITLE0=You Make Me Feel Brand New
TTITLE1=Just When I Needed You Most
TTITLE2=Play That Funky Music
TTITLE3=You Make Me Feel Brand New (NAKED mix)
EXTD=
EXTT0=
EXTT1=
EXTT2=
EXTT3=
PLAYORDER=
